<?xml version="1.0" encoding="UTF-8"?>
<!DOCTYPE svg PUBLIC "-//W3C//DTD SVG 1.1//EN" "http://www.w3.org/Graphics/SVG/1.1/DTD/svg11.dtd">
<!-- Creator: CorelDRAW -->
<svg xmlns="http://www.w3.org/2000/svg" xml:space="preserve" width="25.4112mm" height="25.4112mm" style="shape-rendering:geometricPrecision; text-rendering:geometricPrecision; image-rendering:optimizeQuality; fill-rule:evenodd; clip-rule:evenodd"
viewBox="0 0 5.6848 5.6848"
 xmlns:xlink="http://www.w3.org/1999/xlink">
 <defs>
  <style type="text/css">
   <![CDATA[
    .str0 {stroke:#4D4948;stroke-width:0.0789033}
    .str1 {stroke:#00923F;stroke-width:0.157829}
    .str2 {stroke:#E77817;stroke-width:0.31568;stroke-linecap:round}
    .fil3 {fill:none}
    .fil4 {fill:#174989}
    .fil1 {fill:#4D4948}
    .fil2 {fill:#B6DDC7}
    .fil5 {fill:#DA251D}
    .fil0 {fill:black;fill-rule:nonzero}
   ]]>
  </style>
 </defs>
<symbol id="Im1-1-0" viewBox="-8.07093 -61.1901 4.62221 2.24502">
 <path class="fil0" d="M-5.245 -60.1368l0 0.0151453c-0.0459952,-0.0305367 -0.0818563,-0.0754134 -0.107628,-0.134473 -0.0256598,-0.05906 -0.0384785,-0.12378 -0.0384785,-0.194048 0,-0.0730197 0.013557,-0.139529 0.0404919,-0.199551 0.0270021,-0.0600444 0.0622367,-0.102975 0.105615,-0.128836l0 0.0147874c-0.0217001,0.0159954 -0.0394852,0.037785 -0.0534896,0.06557 -0.0139149,0.0276508 -0.0243175,0.0629079 -0.0311855,0.10548 -0.00684559,0.0427067 -0.0102908,0.0872254 -0.0102908,0.133422 0,0.0524381 0.00315434,0.0997085 0.0094854,0.142057 0.00633106,0.0423487 0.0160849,0.0773597 0.0290826,0.105145 0.0131095,0.0278969 0.0319014,0.0529303 0.0563978,0.0753015zm1.65019 -0.626976l0 -0.0147874c0.0460623,0.030313 0.0819458,0.0750554 0.107606,0.134115 0.0256598,0.05906 0.0384785,0.12378 0.0384785,0.194048 0,0.0730197 -0.0134675,0.139664 -0.0404695,0.199797 -0.0270244,0.0601562 -0.0622591,0.103087 -0.105615,0.128948l0 -0.0151453c0.0218567,-0.0159954 0.0397537,-0.0378968 0.0537357,-0.06557 0.0139149,-0.0276508 0.0243175,-0.062796 0.031096,-0.105368 0.00677848,-0.0424606 0.0102236,-0.0870912 0.0102236,-0.133534 0,-0.0521921 -0.00317671,-0.0994848 -0.00941828,-0.141945 -0.00630868,-0.0423487 -0.0159731,-0.0774715 -0.0291721,-0.105257 -0.0131095,-0.0278969 -0.0319908,-0.0529303 -0.056465,-0.0753015z"/>
 <path class="fil0" d="M-8.03158 -59.6334l0 -0.886795 0.709056 0 0 0.886795 -0.709056 0zm0.022237 -0.022237l0.664604 0 0 -0.842321 -0.664604 0 0 0.842321z"/>
 <polygon class="fil0" points="-7.59109,-60.9725 -7.3083,-60.9725 -7.3083,-60.9457 -7.59109,-60.9457 "/>
 <path class="fil0" d="M-7.72366 -59.1561l0.282795 0 0 0.0261967 -0.282795 0 0 -0.0261967zm0 0.100514l0.282795 0 0 0.0266665 -0.282795 0 0 -0.0266665z"/>
 <polygon class="fil0" points="-6.47356,-60.4327 -6.19077,-60.4327 -6.19077,-60.4059 -6.47356,-60.4059 "/>
 <path class="fil0" d="M-7.26174 -61.1467l0.0888585 -0.0434002 0.00892612 0 0 0.308544c0,0.0204026 0.000827735,0.0331765 0.00248321,0.0382548 0.00174496,0.00496641 0.00532435,0.00881426 0.0106487,0.0115883 0.00543621,0.00266218 0.0163534,0.00422816 0.0329081,0.0045861l0 0.00993282 -0.137404 0 0 -0.00993282c0.0172706,-0.00035794 0.0284114,-0.00183444 0.0334673,-0.00449662 0.00494404,-0.00257269 0.00843395,-0.00608497 0.0104474,-0.0104921 0.0019463,-0.00440713 0.002953,-0.0175614 0.002953,-0.0394405l0 -0.197269c0,-0.026577 -0.00091722,-0.0435791 -0.00266218,-0.0511182 -0.00129753,-0.00579415 -0.00360177,-0.0100223 -0.00691271,-0.0127069 -0.00328857,-0.00266218 -0.0072259,-0.00404919 -0.0119239,-0.00404919 -0.00662188,0 -0.0159059,0.00277403 -0.0277627,0.00838921l-0.00402682 -0.00838921z"/>
 <path class="fil0" d="M-7.39165 -59.1321c0,-0.0416552 0.00624157,-0.0775386 0.0188366,-0.107606 0.012595,-0.0300669 0.0292168,-0.0525053 0.0500892,-0.0672255 0.0161744,-0.0116778 0.0328186,-0.0175614 0.0500892,-0.0175614 0.0279417,0 0.0531093,0.0143623 0.0753686,0.0428633 0.0278522,0.0353913 0.0417223,0.0833104 0.0417223,0.143914 0,0.0423935 -0.0060626,0.078344 -0.0182997,0.107964 -0.0121923,0.029709 -0.0277403,0.0512301 -0.0466887,0.0645633 -0.0189261,0.0134227 -0.0372257,0.0200446 -0.0548542,0.0200446 -0.0347425,0 -0.0638027,-0.0205144 -0.0869569,-0.0617222 -0.0195748,-0.034653 -0.0293063,-0.0763977 -0.0293063,-0.125234zm0.0527513 0.00671137c0,0.0502905 0.00615209,0.0914088 0.0185681,0.123131 0.0102013,0.026756 0.0255479,0.0401787 0.0457715,0.0401787 0.00975385,0 0.0197538,-0.00440713 0.030134,-0.0130424 0.0104921,-0.00874715 0.0183891,-0.0233556 0.0237135,-0.0437805 0.00827735,-0.0308947 0.012416,-0.0744962 0.012416,-0.13067 0,-0.0416552 -0.00431765,-0.0764201 -0.0129753,-0.104295 -0.00642054,-0.0206934 -0.0147874,-0.0353018 -0.0249887,-0.0439594 -0.00736013,-0.00588363 -0.0162639,-0.00881426 -0.0266441,-0.00881426 -0.0122371,0 -0.0230871,0.00541384 -0.0326172,0.0163534 -0.0128858,0.0148992 -0.0217001,0.0383666 -0.026398,0.0703575 -0.00469796,0.0320132 -0.00697982,0.0634448 -0.00697982,0.0945408z"/>
 <polygon class="fil0" points="-4.67158,-60.6605 -4.80382,-60.2699 -4.82534,-60.2699 -4.69317,-60.6605 "/>
 <path class="fil0" d="M-7.89751 -61.1826l0.112773 0.286463 0.0611182 -0.213981c0.0050559,-0.0175838 0.0075391,-0.0311855 0.0075391,-0.0409393 0,-0.00662188 -0.00230424,-0.0118567 -0.00700219,-0.0156375 -0.00467558,-0.00375836 -0.0133109,-0.0055928 -0.0260848,-0.0055928 -0.00212527,0 -0.00440713,-8.94849e-005 -0.00671137,-0.000290826l0.00293063 -0.0100223 0.117382 0 -0.00322146 0.0100223c-0.0122371,-0.00017897 -0.0212303,0.00102908 -0.0272034,0.00378074 -0.00845632,0.00375836 -0.0147203,0.00863529 -0.0188589,0.0145189 -0.00568229,0.00847869 -0.0115659,0.0231766 -0.0174496,0.0441608l-0.0859279 0.301251 -0.00966437 0 -0.121498 -0.308253 -0.0648765 0.227694c-0.00478744,0.0172035 -0.00727065,0.0304472 -0.00727065,0.0395523 0,0.00689034 0.00221475,0.0120357 0.00662188,0.0155256 0.00440713,0.00351228 0.0148769,0.00588363 0.0313421,0.00718116l-0.00266218 0.00993282 -0.114697 0 0.00375836 -0.00993282c0.0143176,-0.00035794 0.0239819,-0.00165547 0.0288589,-0.00375836 0.00736013,-0.00331094 0.012774,-0.00744962 0.0163757,-0.0127069 0.00521249,-0.00789704 0.0110066,-0.0231766 0.017539,-0.0457939l0.0724156 -0.254092c-0.00697982,-0.0107606 -0.0145189,-0.0182102 -0.0225054,-0.022237 -0.0080089,-0.00395971 -0.0204249,-0.00626394 -0.0373152,-0.00682322l0.00302011 -0.0100223 0.0912746 0z"/>
 <path class="fil0" d="M-7.92442 -59.1953l-0.0357716 0.122572c0.0335568,-0.0501115 0.0592837,-0.0831315 0.0771136,-0.0989479 0.0178299,-0.015727 0.035011,-0.023624 0.0515433,-0.023624 0.0090156,0 0.0163757,0.00293063 0.0222594,0.00881426 0.00579415,0.00597312 0.00874715,0.0137136 0.00874715,0.0231766 0,0.0107606 -0.00257269,0.02519 -0.00782993,0.0431317l-0.0327962 0.113377c-0.00387022,0.0131543 -0.00570466,0.0211632 -0.00570466,0.0240043 0,0.00248321 0.00073825,0.00460847 0.00210289,0.00635343 0.0014765,0.00174496 0.00304249,0.00257269 0.00460847,0.00257269 0.00221475,0 0.00478744,-0.00118567 0.00780756,-0.00348991 0.00955251,-0.0075391 0.0199328,-0.0190379 0.0312526,-0.0344964l0.00836684 0.0050559c-0.0167337,0.0239148 -0.0325501,0.0410288 -0.047427,0.0512301 -0.0104026,0.00700219 -0.0197762,0.0104921 -0.027964,0.0104921 -0.00668899,0 -0.0119239,-0.00203578 -0.0158836,-0.00608497 -0.00395971,-0.00402682 -0.00597312,-0.00946303 -0.00597312,-0.0162639 0,-0.00865766 0.00304249,-0.023445 0.00919457,-0.0444292l0.0312526 -0.108321c0.00393733,-0.0134227 0.00588363,-0.0240043 0.00588363,-0.0315434 0,-0.0035794 -0.00120805,-0.0065324 -0.00348991,-0.00872478 -0.00230424,-0.00221475 -0.00525724,-0.0034228 -0.00865766,-0.0034228 -0.00496641,0 -0.011029,0.00221475 -0.0180088,0.0065324 -0.0133332,0.00809838 -0.0271139,0.0214316 -0.0414315,0.0399997 -0.0143623,0.0185905 -0.02953,0.042304 -0.0455031,0.0712747 -0.00845632,0.0152795 -0.0154585,0.0319237 -0.0210737,0.0501339l-0.0134004 0.0444069 -0.0404472 0 0.048993 -0.168657c0.00579415,-0.0203131 0.00863529,-0.0325501 0.00863529,-0.0365993 0,-0.00395971 -0.00156599,-0.00744962 -0.00469796,-0.0104026 -0.0031096,-0.00293063 -0.00706931,-0.00449662 -0.0116778,-0.00449662 -0.00217001,0 -0.00595074,0.000380311 -0.0113646,0.00109619l-0.0102236 0.00165547 -0.00156599 -0.00973148 0.0931314 -0.0166442z"/>
 <path class="fil0" d="M-4.38398 -60.6428l0.112773 0.286463 0.0611405 -0.213981c0.0050559,-0.0175838 0.0075391,-0.0311855 0.0075391,-0.0409393 0,-0.00662188 -0.00230424,-0.0118567 -0.00700219,-0.0156375 -0.00467558,-0.00375836 -0.0133332,-0.0055928 -0.0260848,-0.0055928 -0.00212527,0 -0.00440713,-8.94849e-005 -0.00671137,-0.000290826l0.00293063 -0.0100223 0.117382 0 -0.00322146 0.0100223c-0.0122371,-0.00017897 -0.0212527,0.00102908 -0.0272258,0.00378074 -0.00843395,0.00375836 -0.0146979,0.00863529 -0.0188366,0.0145189 -0.00568229,0.00847869 -0.0115883,0.0231766 -0.0174719,0.0441608l-0.0859279 0.301251 -0.009642 0 -0.121498 -0.308253 -0.0648989 0.227694c-0.00478744,0.0172035 -0.00727065,0.0304472 -0.00727065,0.0395523 0,0.00689034 0.00221475,0.0120357 0.00662188,0.0155256 0.00440713,0.00351228 0.0148992,0.00588363 0.0313645,0.00718116l-0.00266218 0.00993282 -0.11472 0 0.00375836 -0.00993282c0.01434,-0.00035794 0.0240043,-0.00165547 0.0288812,-0.00375836 0.00733776,-0.00331094 0.0127516,-0.00744962 0.0163534,-0.0127069 0.00523487,-0.00789704 0.011029,-0.0231766 0.0175614,-0.0457939l0.0724156 -0.254092c-0.00700219,-0.0107606 -0.0145413,-0.0182102 -0.0225054,-0.022237 -0.0080089,-0.00395971 -0.0204249,-0.00626394 -0.0373376,-0.00682322l0.00302011 -0.0100223 0.0912746 0zm-0.700152 0.121588l-0.0357716 0.122572c0.0335568,-0.0501115 0.0592837,-0.0831315 0.0771136,-0.0989479 0.0178522,-0.015727 0.035011,-0.023624 0.0515657,-0.023624 0.0090156,0 0.0163534,0.00293063 0.022237,0.00881426 0.00579415,0.00597312 0.00874715,0.0137136 0.00874715,0.0231766 0,0.0107606 -0.00257269,0.02519 -0.00782993,0.0431317l-0.0327962 0.113377c-0.00387022,0.0131543 -0.00570466,0.0211632 -0.00570466,0.0240043 0,0.00248321 0.00073825,0.00460847 0.00210289,0.00635343 0.0014765,0.00174496 0.00304249,0.00257269 0.00460847,0.00257269 0.00221475,0 0.00478744,-0.00118567 0.00780756,-0.00348991 0.00957488,-0.0075391 0.0199328,-0.0190379 0.0312526,-0.0344964l0.00836684 0.0050559c-0.0167337,0.0239148 -0.0325278,0.0410288 -0.047427,0.0512301 -0.0104026,0.00700219 -0.0197762,0.0104921 -0.0279417,0.0104921 -0.00671137,0 -0.0119462,-0.00203578 -0.0159059,-0.00608497 -0.00395971,-0.00402682 -0.00597312,-0.00946303 -0.00597312,-0.0162639 0,-0.00865766 0.00304249,-0.023445 0.00919457,-0.0444292l0.0312526 -0.108321c0.00393733,-0.0134227 0.00588363,-0.0240043 0.00588363,-0.0315434 0,-0.0035794 -0.00120805,-0.0065324 -0.00348991,-0.00872478 -0.00230424,-0.00221475 -0.00525724,-0.0034228 -0.00865766,-0.0034228 -0.00496641,0 -0.0110066,0.00221475 -0.0180088,0.0065324 -0.0133332,0.00809838 -0.0271139,0.0214316 -0.0414315,0.0399997 -0.0143623,0.0185905 -0.0295076,0.042304 -0.0455031,0.0712747 -0.00845632,0.0152795 -0.0154585,0.0319237 -0.0210737,0.0501339l-0.0134004 0.0444069 -0.0404248 0 0.048993 -0.168657c0.00577177,-0.0203131 0.00861292,-0.0325501 0.00861292,-0.0365993 0,-0.00395971 -0.00156599,-0.00744962 -0.00469796,-0.0104026 -0.00308723,-0.00293063 -0.00704693,-0.00449662 -0.0116554,-0.00449662 -0.00219238,0 -0.00597312,0.000380311 -0.011387,0.00109619l-0.0102236 0.00165547 -0.00156599 -0.00973148 0.0931314 -0.0166442zm-0.682524 -0.106957c0.0075391,0 0.0138702,0.00257269 0.0191274,0.00780756 0.00514538,0.00516775 0.00780756,0.0114988 0.00780756,0.0191274 0,0.00736013 -0.00266218,0.0136241 -0.0080089,0.0189484 -0.00523487,0.00534672 -0.0115883,0.00791941 -0.0189261,0.00791941 -0.00736013,0 -0.0136912,-0.00257269 -0.0190155,-0.00791941 -0.00525724,-0.00532435 -0.00791941,-0.0115883 -0.00791941,-0.0189484 0,-0.00762859 0.00257269,-0.0139596 0.00780756,-0.0191274 0.00516775,-0.00523487 0.0115659,-0.00780756 0.0191274,-0.00780756zm0.00348991 0.106957l-0.0533106 0.188791c-0.0035794,0.012774 -0.00541384,0.0204026 -0.00541384,0.0228858 0,0.002953 0.000827735,0.00525724 0.00257269,0.00709168 0.00172258,0.00174496 0.00375836,0.00266218 0.00604023,0.00266218 0.00268455,0 0.00588363,-0.0014765 0.00966437,-0.00431765 0.0102908,-0.00809838 0.0206039,-0.0195972 0.0309618,-0.0344964l0.0094854 0.00617446c-0.0122371,0.0186576 -0.0265546,0.0343846 -0.0431093,0.0471809 -0.0122147,0.00955251 -0.0238925,0.0142505 -0.035011,0.0142505 -0.00736013,0 -0.0133332,-0.00221475 -0.0180088,-0.0065324 -0.00469796,-0.00440713 -0.00697982,-0.00993282 -0.00697982,-0.0166442 0,-0.00662188 0.00219238,-0.0176509 0.00671137,-0.0331094l0.035011 -0.120737c0.00570466,-0.0196867 0.00861292,-0.0321027 0.00861292,-0.0371586 0,-0.00395971 -0.00136464,-0.00718116 -0.00420579,-0.00966437 -0.00275166,-0.00257269 -0.00662188,-0.00375836 -0.0114093,-0.00375836 -0.00393733,0 -0.0121252,0.00091722 -0.0245412,0.00293063l0 -0.0104697 0.09293 -0.0150782zm0.184182 -0.139328l-0.0764648 0.264853 0.0306933 -0.0261296c0.0335345,-0.0284114 0.055324,-0.0493733 0.0654358,-0.0630868 0.00322146,-0.00449662 0.00476507,-0.00789704 0.00476507,-0.0102013 0,-0.00165547 -0.000447424,-0.00313197 -0.00154361,-0.0045861 -0.00111856,-0.0014765 -0.00322146,-0.00259506 -0.00635343,-0.00351228 -0.00313197,-0.00091722 -0.00863529,-0.00136464 -0.0165323,-0.00136464l-0.00946303 0 0.00293063 -0.0102236 0.11774 0 -0.00275166 0.0102236c-0.0134451,0.00073825 -0.025011,0.00284114 -0.034832,0.00633106 -0.00975385,0.00348991 -0.0192169,0.00865766 -0.0284114,0.015548 -0.0180983,0.0134227 -0.0300669,0.0227963 -0.0358611,0.027964l-0.0231542 0.020492c0.00395971,0.0129753 0.00883663,0.0310065 0.0146308,0.0541607 0.009642,0.0384561 0.016152,0.0612524 0.0195748,0.0684336 0.00348991,0.00715879 0.00697982,0.0107606 0.0105592,0.0107606 0.00304249,0 0.00662188,-0.0014765 0.0107606,-0.00460847 0.00926168,-0.00680085 0.019284,-0.0176509 0.0298656,-0.0325501l0.0094854 0.00671137c-0.0195972,0.0246531 -0.0345859,0.0408275 -0.0450556,0.0486574 -0.0103802,0.00780756 -0.0198656,0.0116778 -0.0285009,0.0116778 -0.00751673,0 -0.0134004,-0.002953 -0.017539,-0.00883663 -0.00718116,-0.0106711 -0.0191274,-0.0524158 -0.0357492,-0.125346l-0.0369573 0.0321027 -0.0276732 0.095637 -0.0419908 0 0.0893283 -0.307425 0.0075391 -0.0261072c0.00091722,-0.00451899 0.00138702,-0.00847869 0.00138702,-0.0118791 0,-0.00431765 -0.00165547,-0.00789704 -0.00496641,-0.0107606 -0.00331094,-0.00284114 -0.00818787,-0.00431765 -0.0144518,-0.00431765 -0.00409393,0 -0.0106263,0.00091722 -0.0196419,0.00266218l0 -0.00937354 0.0931985 -0.0159059z"/>
 <path class="fil0" d="M-6.86329 -60.0254c-0.00221475,0.0154585 -0.00331094,0.0282101 -0.00331094,0.0384785 0,0.0272705 0.00977622,0.0506037 0.0291273,0.0699772 0.0193958,0.0192392 0.0428633,0.0288589 0.0705812,0.0288589 0.022237,0 0.0434897,-0.00456373 0.0639817,-0.0137136 0.020492,-0.00899323 0.0509169,-0.0291721 0.0912522,-0.0602233l0.00959725 0.0134004c-0.0729525,0.0723709 -0.142438,0.108456 -0.208634,0.108456 -0.0448767,0 -0.0787691,-0.0141834 -0.10161,-0.0423935 -0.0226844,-0.0283891 -0.0340266,-0.0595969 -0.0340266,-0.0938025 0,-0.0458834 0.0140044,-0.0928629 0.0423711,-0.140939 0.0283667,-0.0479415 0.0638251,-0.0853015 0.106666,-0.111946 0.0427067,-0.0266441 0.0868227,-0.0398879 0.132057,-0.0398879 0.0325949,0 0.0567334,0.00662188 0.0724604,0.0198656 0.0156151,0.0132438 0.0234898,0.0288589 0.0234898,0.0469796 0,0.0257045 -0.0100894,0.0501339 -0.0304249,0.0734671 -0.0267783,0.0305815 -0.0661741,0.0551898 -0.118165,0.0739369 -0.0344964,0.0126174 -0.083042,0.0225502 -0.145413,0.0294853zm0.00315434 -0.0225502c0.0455254,-0.00519012 0.0827064,-0.0141834 0.11123,-0.0268007 0.037964,-0.0168679 0.0663307,-0.0372033 0.0852343,-0.0606931 0.0189037,-0.0236464 0.0283667,-0.0460176 0.0283667,-0.067315 0,-0.0129306 -0.0041163,-0.0233332 -0.0123042,-0.0313645 -0.0080089,-0.00805364 -0.0196867,-0.011991 -0.0348096,-0.011991 -0.0313645,0 -0.0646081,0.0167113 -0.0998875,0.0501339 -0.0353018,0.0334226 -0.0611405,0.0827735 -0.0778295,0.14803z"/>
 <path class="fil0" d="M-5.81363 -60.5243l-0.0133556 0.0391049 -0.0651674 0c-0.0203131,0.0410959 -0.0369125,0.0805364 -0.0497983,0.118254 -0.00635343,0.0185905 -0.00765096,0.0318119 -0.00391496,0.0397313 0.00378074,0.0080089 0.0103802,0.0120357 0.0201341,0.0120357 0.00771807,0 0.0153467,-0.00266218 0.0229752,-0.00807601 0.00756147,-0.00543621 0.0138925,-0.0132661 0.0190603,-0.0234674l0.00937354 0c-0.0127516,0.0284114 -0.0263757,0.0483889 -0.0408275,0.0600667 -0.0144966,0.0116554 -0.0283443,0.017539 -0.0414091,0.017539 -0.0140715,0 -0.023445,-0.00642054 -0.0284786,-0.019105 -0.00501115,-0.0127963 -0.00145413,-0.0365993 0.0104697,-0.071476 0.00747199,-0.0218791 0.0251676,-0.0637132 0.0530869,-0.125503l-0.0700219 0c-0.0377179,0.0941605 -0.0648542,0.153668 -0.081297,0.178657 -0.016331,0.0249439 -0.0315434,0.0374271 -0.0453241,0.0374271 -0.00644291,0 -0.011029,-0.00219238 -0.013803,-0.00642054 -0.00275166,-0.00431765 -0.00302011,-0.00975385 -0.000827735,-0.0161744 0.00161073,-0.00469796 0.00373599,-0.00874715 0.00628631,-0.0121476 0.00362414,-0.00469796 0.0100894,-0.0112304 0.0194182,-0.0196867 0.0159059,-0.0145413 0.0287246,-0.0297985 0.0385232,-0.0457939 0.0170469,-0.0273153 0.0353018,-0.0659504 0.0546753,-0.115861l-0.012416 0c-0.0130424,0 -0.023624,0.00219238 -0.031521,0.00651002 -0.012595,0.00644291 -0.0258388,0.0172035 -0.0396194,0.0322817l-0.0104921 0c0.0207381,-0.031096 0.0397313,-0.0525053 0.0573151,-0.064362 0.0132661,-0.0090156 0.0292392,-0.0135346 0.0477178,-0.0135346l0.189238 0z"/>
</symbol>
 <g id="Diagram">
  <metadata id="CorelCorpID_0Corel-Layer"/>
  <path class="fil1 str0" d="M1.50012 0.605276l2.68455 0c0.492883,0 0.894849,0.401966 0.894849,0.894849l0 2.68455c0,0.492883 -0.401966,0.894849 -0.894849,0.894849l-2.68455 0c-0.492883,0 -0.894849,-0.401966 -0.894849,-0.894849l0 -2.68455c0,-0.492883 0.401966,-0.894849 0.894849,-0.894849z"/>
  <path class="fil2 str1" d="M1.67909 1.09744l2.32661 0c0.320378,0 0.581652,0.261273 0.581652,0.581652l0 2.32661c0,0.320378 -0.261273,0.581652 -0.581652,0.581652l-2.32661 0c-0.320378,0 -0.581652,-0.261273 -0.581652,-0.581652l0 -2.32661c0,-0.320378 0.261273,-0.581652 0.581652,-0.581652z"/>
  <line class="fil3 str2" x1="0.605276" y1="3.73725" x2="0.157851" y2= "3.73725" />
  <line class="fil3 str2" x1="0.605276" y1="3.28946" x2="0.157851" y2= "3.28946" />
  <line class="fil3 str2" x1="0.605276" y1="2.39497" x2="0.157851" y2= "2.39497" />
  <line class="fil3 str2" x1="0.605276" y1="2.84204" x2="0.157851" y2= "2.84204" />
  <line class="fil3 str2" x1="0.605276" y1="1.94719" x2="0.157851" y2= "1.94719" />
  <line class="fil3 str2" x1="0.605276" y1="1.49977" x2="0.157851" y2= "1.49977" />
  <line class="fil3 str2" x1="0.605276" y1="4.18449" x2="0.157851" y2= "4.18449" />
  <line class="fil3 str2" x1="5.52694" y1="3.73725" x2="5.07952" y2= "3.73725" />
  <line class="fil3 str2" x1="5.52694" y1="3.28946" x2="5.07952" y2= "3.28946" />
  <line class="fil3 str2" x1="5.52694" y1="2.39497" x2="5.07952" y2= "2.39497" />
  <line class="fil3 str2" x1="5.52694" y1="2.84204" x2="5.07952" y2= "2.84204" />
  <line class="fil3 str2" x1="5.52694" y1="1.94719" x2="5.07952" y2= "1.94719" />
  <line class="fil3 str2" x1="5.52694" y1="1.49977" x2="5.07952" y2= "1.49977" />
  <line class="fil3 str2" x1="5.52694" y1="4.18449" x2="5.07952" y2= "4.18449" />
  <line class="fil3 str2" x1="1.94755" y1="5.52694" x2="1.94755" y2= "5.07952" />
  <line class="fil3 str2" x1="2.39533" y1="5.52694" x2="2.39533" y2= "5.07952" />
  <line class="fil3 str2" x1="3.28982" y1="5.52694" x2="3.28982" y2= "5.07952" />
  <line class="fil3 str2" x1="2.84276" y1="5.52694" x2="2.84276" y2= "5.07952" />
  <line class="fil3 str2" x1="3.7376" y1="5.52694" x2="3.7376" y2= "5.07952" />
  <line class="fil3 str2" x1="4.18503" y1="5.52694" x2="4.18503" y2= "5.07952" />
  <line class="fil3 str2" x1="1.5003" y1="5.52694" x2="1.5003" y2= "5.07952" />
  <line class="fil3 str2" x1="1.94737" y1="0.605276" x2="1.94737" y2= "0.157851" />
  <line class="fil3 str2" x1="2.39515" y1="0.605276" x2="2.39515" y2= "0.157851" />
  <line class="fil3 str2" x1="3.28964" y1="0.605276" x2="3.28964" y2= "0.157851" />
  <line class="fil3 str2" x1="2.84258" y1="0.605276" x2="2.84258" y2= "0.157851" />
  <line class="fil3 str2" x1="3.73743" y1="0.605276" x2="3.73743" y2= "0.157851" />
  <line class="fil3 str2" x1="4.18485" y1="0.605276" x2="4.18485" y2= "0.157851" />
  <line class="fil3 str2" x1="1.50012" y1="0.605276" x2="1.50012" y2= "0.157851" />
  <path class="fil4" d="M4.4212 2.85226l-2.2305 1.50585 -0.706416 -1.04771 2.23233 -1.50406 0.704582 1.04592zm-0.680846 -0.868853l-0.0584113 -0.0857936 -0.107695 0.0730197 0.0565768 0.0857936 0.109529 -0.0730197zm0.584113 0.865185l-0.0584336 -0.0857936 -0.107695 0.0729973 0.0565992 0.0876281 0.109529 -0.0748317zm-0.832366 -0.697244l-0.0583889 -0.0857936 -0.107695 0.0729973 0.0565544 0.0857936 0.109529 -0.0729973zm0.584113 0.865162l-0.0584113 -0.0857936 -0.107695 0.073042 0.0565768 0.0857489 0.109529 -0.0729973zm-0.832321 -0.699078l-0.0584336 -0.0857936 -0.109529 0.0748317 0.0584336 0.0857936 0.109529 -0.0748317zm0.991112 0.408879l-0.472726 -0.700913 -0.974736 0.65711 0.472771 0.702747 0.974692 -0.658944zm-0.407022 0.458163l-0.0584336 -0.0857936 -0.109529 0.0729973 0.0584336 0.0857936 0.109529 -0.0729973zm-0.832344 -0.699123l-0.0584336 -0.0857936 -0.109485 0.073042 0.0583889 0.0875833 0.109529 -0.0748317zm0.58409 0.867041l-0.0584336 -0.0857936 -0.109485 0.0729973 0.0583889 0.0857936 0.109529 -0.0729973zm-0.832344 -0.699078l-0.0583889 -0.0857936 -0.109529 0.0729973 0.0584336 0.0857936 0.109485 -0.0729973zm0.58409 0.866997l-0.0583889 -0.0876281 -0.109529 0.0748317 0.0584336 0.0857936 0.109485 -0.0729973zm-0.832299 -0.699078l-0.0584336 -0.0857936 -0.109529 0.0729973 0.0584336 0.0857936 0.109529 -0.0729973zm0.58409 0.865162l-0.0584336 -0.0857936 -0.109529 0.0730197 0.0584336 0.0876057 0.109529 -0.0748317zm-0.832344 -0.697244l-0.0583889 -0.0857936 -0.109529 0.0729973 0.0583889 0.0857936 0.109529 -0.0729973zm0.868831 0.491004l-0.472749 -0.702747 -0.976526 0.658944 0.472749 0.700913 0.976526 -0.65711zm-0.284741 0.374159l-0.0583889 -0.0857489 -0.109529 0.0729973 0.0583889 0.0857936 0.109529 -0.073042zm-0.834156 -0.699078l-0.0565768 -0.0857936 -0.109529 0.0748317 0.0584113 0.0857936 0.107695 -0.0748317zm0.58409 0.867041l-0.0565768 -0.0857936 -0.109529 0.0729973 0.0584113 0.0857936 0.107695 -0.0729973zm-0.832344 -0.699123l-0.0565992 -0.0857489 -0.109485 0.0729973 0.0583889 0.0875833 0.107695 -0.0748317zm0.584113 0.867041l-0.0565992 -0.0857936 -0.109507 0.0729973 0.0583889 0.0857936 0.107717 -0.0729973z"/>
  <path class="fil5" d="M2.17867 1.35576l0.0683664 0c0.0159059,0.107762 0.0380087,0.198231 0.0649213,0.27143 0.0276508,0.0725051 0.059418,0.135368 0.0960173,0.187158 0.0365993,0.0518117 0.0918562,0.118791 0.165077,0.200983 0.0731986,0.0821919 0.132594,0.151252 0.177471,0.208567 0.136084,0.17407 0.203757,0.356374 0.203757,0.546305 0,0.195457 -0.082863,0.433062 -0.249327,0.712747l-0.044899 0c0.0214316,-0.0490153 0.0455925,-0.105659 0.0738921,-0.169887 0.028322,-0.0642278 0.0518117,-0.12293 0.070447,-0.175435 0.0387022,-0.104966 0.0621696,-0.20926 0.0621696,-0.310781 0,-0.0801113 -0.0165771,-0.160939 -0.0490377,-0.242415 -0.0324606,-0.0814984 -0.0787243,-0.156778 -0.137426,-0.22586 -0.0587021,-0.0690376 -0.12501,-0.12501 -0.20029,-0.167807 -0.074608,-0.0428185 -0.151945,-0.0663083 -0.232773,-0.0711405l0 1.60093c0,0.0911403 -0.0282996,0.171968 -0.0842276,0.243108 -0.0559728,0.0711405 -0.127091,0.125704 -0.214808,0.16369 -0.087024,0.037964 -0.173355,0.0573151 -0.258298,0.0573151 -0.0829077,0 -0.151945,-0.0207157 -0.206531,-0.0621472 -0.054541,-0.0414539 -0.0821695,-0.101543 -0.0821695,-0.180961 0,-0.08425 0.0276285,-0.162303 0.0828854,-0.233444 0.055928,-0.0711181 0.125682,-0.127762 0.210647,-0.168522 0.0849435,-0.0414539 0.167135,-0.0621472 0.246553,-0.0621472 0.10982,0 0.189238,0.0214093 0.237582,0.0649213l0 -1.44554 0 -0.741069z"/>
 </g>
</svg>
